<svg id="Layer_1" data-name="Layer 1" xmlns="http://www.w3.org/2000/svg" viewBox="0 0 62 56"><defs><style>.cls-1{fill:#808080;}</style></defs><title>reading_v1</title><path class="cls-1" d="M58,27.23h-2.5V19.75a2,2,0,0,0-.74-1.57A19.11,19.11,0,0,0,42.5,13.62H42a10.62,10.62,0,0,0,.11-1.51A12.14,12.14,0,1,0,18,13.62,19.25,19.25,0,0,0,6.09,18.19a2,2,0,0,0-.77,1.57v7.48H4.06A4.1,4.1,0,0,0,0,31.33v4a4,4,0,0,0,4.06,4H5.32V54a2,2,0,0,0,1.15,1.81,2.2,2.2,0,0,0,.91.21,1.92,1.92,0,0,0,1.21-.41,17.93,17.93,0,0,1,9.83-2.81,21.37,21.37,0,0,1,10.42,2.81,3.64,3.64,0,0,0,3.18,0,21.81,21.81,0,0,1,10.41-2.81,18,18,0,0,1,9.83,2.82,2,2,0,0,0,1.21.4,2.2,2.2,0,0,0,.9-.21A2,2,0,0,0,55.48,54V39.36H58a4,4,0,0,0,4-4v-4a4.06,4.06,0,0,0-4-4.1ZM18.47,48.74a22.46,22.46,0,0,0-9,1.85V39.36h2.68a3.94,3.94,0,0,0,4-4v-4a4,4,0,0,0-4-4.1H9.47V20.75a14.49,14.49,0,0,1,8.91-3.08,18,18,0,0,1,8.78,2.52,6.83,6.83,0,0,0,.66.66V50.63a24.71,24.71,0,0,0-9.35-1.89Zm33,1.85a23.12,23.12,0,0,0-9-1.85,24.31,24.31,0,0,0-9.34,1.88v-30a18.16,18.16,0,0,1,9.42-2.9,14.89,14.89,0,0,1,8.93,3.08v6.48H49.9a4.07,4.07,0,0,0-4,4.1v4a4,4,0,0,0,4,4h1.59Zm0,0"/></svg>